<?xml version="1.0" encoding="UTF-8" standalone="no"?>
<!-- Created with Inkscape (http://www.inkscape.org/) -->
<svg width="80.797951mm" height="115.6991mm" viewBox="0 0 80.797951 115.6991" version="1.1" id="svg1" inkscape:export-filename="logo zoal.svg" inkscape:export-xdpi="96" inkscape:export-ydpi="96" xmlns:inkscape="http://www.inkscape.org/namespaces/inkscape" xmlns:sodipodi="http://sodipodi.sourceforge.net/DTD/sodipodi-0.dtd" xmlns="http://www.w3.org/2000/svg" xmlns:svg="http://www.w3.org/2000/svg">
  <sodipodi:namedview id="namedview1" pagecolor="#ffffff" bordercolor="#000000" borderopacity="0.25" inkscape:showpageshadow="2" inkscape:pageopacity="0.0" inkscape:pagecheckerboard="0" inkscape:deskcolor="#d1d1d1" inkscape:document-units="mm"/>
  <defs id="defs1"/>
  <g inkscape:label="Calque 1" inkscape:groupmode="layer" id="layer1" transform="translate(-54.418027,-67.382956)">
    <path style="fill:#f4e5d6;stroke-width:1.56291" d="m 103.36112,182.97281 c -0.66668,-0.18537 -0.84121,-0.29269 -1.57033,-0.97346 -0.46289,-0.43145 -0.47806,-0.43578 -0.88891,-0.2309 -0.86072,0.42928 -1.379441,-0.4683 -0.55286,-0.95612 0.37941,-0.22331 0.39676,-0.26992 0.29811,-0.76858 -0.730641,-3.67683 2.46965,-5.65389 4.78124,-2.95334 0.98431,1.14973 0.78701,1.61835 -1.15016,2.74055 -2.03972,1.18105 -1.95505,1.0862 -1.3674,1.53445 1.0797,0.82386 2.54347,0.49757 2.98771,-0.66452 0.2851,-0.74581 0.37724,-0.85638 0.71221,-0.85638 1.18951,0 0.46722,2.17587 -0.96371,2.9064 -0.66668,0.3393 -1.54973,0.42603 -2.2846,0.22223 z m 0.38917,-4.17505 c 1.10788,-0.63849 1.11081,-0.645 0.49323,-1.18702 -1.20869,-1.06127 -2.44569,-0.39567 -2.44569,1.31635 0,0.90733 0.0542,0.97997 0.58321,0.66885 0.22548,-0.13551 0.84122,-0.49432 1.36914,-0.79785 z m 5.51698,0.81303 c -0.0759,-0.0542 -0.54853,-0.81194 -1.0461,-1.68513 -0.49865,-0.87374 -1.28675,-2.17609 -1.75256,-2.89492 -0.95069,-1.46897 -1.01899,-1.84437 -0.34364,-1.90974 0.4011,-0.0434 0.46722,0.0217 1.2744,1.23255 0.85205,1.27352 0.85205,1.27352 0.90408,-0.0217 0.0759,-2.03874 0.71113,-3.007 1.77522,-2.73989 1.25162,0.31437 4.62774,5.31946 3.96117,5.87276 -0.42278,0.35122 -0.77942,0.0325 -1.96536,-1.7621 -1.58952,-2.40418 -2.18585,-3.05644 -2.3801,-2.60331 -0.24174,0.56586 -0.13551,2.97394 0.20488,4.59359 0.37941,1.80872 0.16044,2.47215 -0.63199,1.92146 z m 6.8589,-3.6003 c -1.75126,-0.41518 -2.95584,-3.05622 -2.4174,-5.30071 0.42169,-1.75961 2.54694,-2.78716 3.77147,-1.82389 0.74039,0.58321 0.1496,1.51906 -0.61899,0.98105 -0.95503,-0.66885 -2.09489,0.39351 -2.09489,1.9543 0,2.83985 2.32829,4.01646 3.52571,1.78183 0.68078,-1.27027 1.63765,-0.90083 1.16155,0.44879 -0.46831,1.32772 -2.05349,2.26097 -3.32756,1.95928 z m 5.02732,-1.88253 c -1.65359,-2.02455 -1.22799,-6.66215 0.69053,-7.53404 2.33078,-1.05911 3.85645,2.77588 1.65196,4.15261 -0.40001,0.24933 -0.32629,0.31654 0.52793,0.48565 1.99798,0.3935 2.46834,0.68727 2.12459,1.32978 -0.19187,0.35773 -0.4141,0.34364 -2.54596,-0.15285 -2.07322,-0.48348 -2.0434,-0.48998 -1.75451,0.39242 0.3664,1.12089 -0.11382,2.03821 -0.69487,1.32664 z m 0.86506,-3.86545 c 1.13997,-0.59514 1.64621,-1.77847 1.02658,-2.39832 -0.71763,-0.71763 -1.79375,0.43361 -1.79375,1.91917 0,0.73715 0.12466,0.8152 0.76749,0.47915 z m -23.500141,3.56712 c -1.33455,-0.60164 -1.23742,-3.44062 0.24066,-7.0292 0.29811,-0.72197 0.67969,-1.70042 0.84771,-2.1736 0.16911,-0.47264 0.854221,-2.15734 1.522851,-3.74296 2.6535,-6.29022 5.06201,-13.63434 6.30161,-19.2156 0.19404,-0.87373 0.49215,-2.18335 0.66234,-2.91117 0.17128,-0.72739 0.31329,-1.3686 0.31546,-1.42399 0.003,-0.0542 -0.32088,0.16586 -0.72089,0.49107 -0.40001,0.32629 -1.29314,0.96262 -1.98497,1.41575 -1.2577,0.82386 -1.2577,0.82386 -1.2577,1.53163 0,4.67522 -1.84167,10.0851 -3.74718,11.00761 -1.993221,0.96479 -3.046901,-0.15068 -3.276171,-3.46902 -0.26017,-3.75932 -0.60381,-5.2761 -1.1468,-5.05496 -1.28979,0.52576 -6.08079,1.07862 -8.12105,0.93878 -1.42973,-0.0976 -1.38344,-0.16044 -2.34867,3.13036 -0.59839,2.04308 -1.34973,2.87866 -2.5852,2.87866 -1.97739,0 -2.19821,-0.73606 -1.784,-5.94355 0.15176,-1.90757 0.15176,-1.90757 -0.22873,-2.18335 -4.94147,-3.58631 -4.43316,-8.05546 1.0385,-9.13094 1.42497,-0.27968 1.42497,-0.27968 2.06661,-2.13023 0.35339,-1.01791 0.91817,-2.53762 1.25661,-3.37775 0.65909,-1.63754 0.70896,-1.84687 0.44337,-1.84687 -3.1734,0 -5.71763,-5.7198 -5.71763,-12.85448 0,-3.44517 0.33713,-3.46393 -4.65008,0.258 -2.49946,1.86573 -2.98944,2.12655 -3.73753,1.99018 -2.12612,-0.38809 -1.94584,-3.52507 0.53768,-9.36661 1.8486,-4.34698 5.6592,-12.26986 6.96926,-14.489963 0.38917,-0.659093 0.91601,-1.586485 1.17054,-2.059558 0.25366,-0.472639 1.04392,-1.842642 1.75386,-3.043427 3.10706,-5.255075 3.96529,-6.72275 4.29375,-7.344118 0.19296,-0.364236 0.85747,-1.376183 1.47787,-2.249589 0.62006,-0.873732 1.25108,-1.826057 1.40133,-2.117228 0.14959,-0.290522 0.43036,-0.701371 0.62223,-0.91059 0.34906,-0.38158 0.34906,-0.38158 -0.61356,-0.297025 -6.5957,0.583211 -12.3426,2.443414 -14.56357,4.714142 -1.20642,1.233523 -1.36513,1.419326 -2.07756,2.433332 -2.14411,3.051666 -6.19894,0.610312 -4.12128,-2.481897 3.16495,-4.709697 8.33905,-7.465747 16.29987,-8.682142 4.54395,-0.693783 6.07981,-0.962623 7.58575,-1.328051 3.47238,-0.841211 5.05139,-0.290522 5.05139,1.76199 0,1.168806 -0.25692,1.65879 -2.2819,4.346654 -2.05793,2.731875 -6.87657,10.380499 -10.82484,17.182708 -1.29195,2.225632 -3.70176,7.298589 -4.65159,9.792082 -0.59622,1.56578 -1.6937,4.53333 -1.6937,4.5807 0,0.0217 0.37291,-0.12033 0.82712,-0.30461 0.45421,-0.18429 1.27363,-0.48131 1.81944,-0.66018 0.99298,-0.32413 0.99298,-0.32413 1.43928,-1.40773 5.42039,-13.140124 21.087831,-11.964597 18.156491,1.36231 -0.24716,1.1223 -0.24716,1.1223 0.36966,1.79668 2.64168,2.89047 2.71843,7.04308 0.21897,11.78606 -0.70679,1.34008 -0.70679,1.34008 -0.12141,1.4203 3.06988,0.42061 4.28931,3.62956 4.09277,10.77 -0.0542,1.83765 -0.065,3.34121 -0.0434,3.34121 1.64318,0 5.3882,-4.46514 5.01865,-5.98366 -0.62007,-2.5439 1.79158,-6.85609 3.83044,-6.85121 3.45828,0.008 3.92301,5.12944 0.87915,9.68109 -0.77617,1.16111 -0.77617,1.16111 -0.96804,2.8522 -0.10841,0.9301 -0.24933,1.92926 -0.32088,2.22032 -0.065,0.29052 -0.37291,1.80958 -0.66885,3.37438 -1.47504,7.76798 -5.06862,19.07847 -7.73112,24.3329 -0.18645,0.36748 -0.33822,0.69486 -0.33822,0.72847 0,0.0325 0.78918,-0.34147 1.75332,-0.83254 6.76102,-3.44365 16.46476,-5.45822 24.24433,-5.03339 3.50501,0.19079 4.43739,0.70354 4.43739,2.43908 0,1.77283 -1.02333,2.44786 -3.83445,2.53068 -12.68418,0.3729 -20.42527,2.65035 -26.93935,7.9244 -3.55953,2.8818 -4.686391,3.44344 -5.853131,2.91714 z m 1.972621,-1.43645 c 0.40001,-0.24066 1.61716,-1.15146 2.70488,-2.02346 2.46727,-1.97815 2.55442,-2.03864 4.19977,-2.91801 6.65315,-3.55574 11.56123,-4.97507 18.48691,-5.34559 1.41922,-0.0759 3.19476,-0.17128 3.94578,-0.21139 1.19862,-0.065 1.35483,-0.0976 1.27916,-0.2916 -0.21572,-0.54635 -0.2244,-1.56751 -0.0217,-1.96861 0.6721,-1.29932 -10.07318,-0.31979 -16.45586,1.49966 -6.84525,1.95169 -12.86186,5.45963 -15.236221,8.88355 -1.42822,2.05934 -0.7675,3.49547 1.092271,2.37545 z m 1.14908,-6.24827 c 1.401,-1.14593 1.7609,-1.82172 4.15543,-7.80353 2.83887,-7.09154 5.11729,-15.07383 6.37846,-22.34597 0.29919,-1.72069 0.0217,-2.10042 -0.87374,-1.17498 -1.24826,1.29802 -1.55483,2.13901 -3.27985,9.00009 -1.66703,6.6306 -3.53612,12.08145 -6.6124,19.28465 -2.026271,4.74449 -2.111591,5.08033 -1.05368,4.14448 0.43795,-0.387 1.01683,-0.88457 1.28578,-1.10474 z m 32.04005,-4.91024 c 0.37183,-0.47264 0.36207,-1.16285 -0.0217,-1.43017 -0.41518,-0.29052 -0.43253,-0.27426 -0.43687,0.38266 -0.002,0.39893 -0.0976,0.71872 -0.30136,0.99189 -0.41627,0.56262 0.31654,0.61574 0.75883,0.0542 z m -33.51282,-10.60132 c 1.43938,-0.80327 1.88839,-2.54174 1.44133,-5.58105 -0.35231,-2.39875 -0.75449,-2.97881 -1.685671,-2.43495 -1.67018,0.97563 -2.0085,8.24766 -0.38375,8.24766 0.11707,0 0.40001,-0.10841 0.628741,-0.23199 z m -16.305191,-1.87809 c 1.28827,-1.42356 0.79677,-5.38299 -0.55069,-4.43902 -0.50299,0.35123 -1.16403,3.81104 -0.84337,4.40932 0.20596,0.38266 1.05801,0.40109 1.3945,0.0325 z m 19.181131,-5.46603 c 0.0976,-1.3532 -0.0434,-2.01598 -0.45421,-2.12373 -0.2851,-0.0759 -0.27643,0.62657 0.0325,2.45458 0.2038,1.21271 0.31871,1.12273 0.42494,-0.33063 z m -11.196451,-0.37291 c 9.288661,-1.02007 19.660491,-7.95204 23.062951,-15.41313 1.23764,-2.71399 0.81953,-5.66192 -0.80327,-5.66192 -0.55178,0 -0.58213,0.0759 -0.25367,0.62874 2.47637,4.19706 -7.88613,14.02482 -17.809171,16.89014 -8.51694,2.45924 -17.18184,-0.4889 -13.42274,-4.56693 0.79677,-0.86398 0.59189,-0.89975 -1.47916,-0.25367 -2.26238,0.70463 -2.6702,3.34252 -0.81194,5.25074 2.5194,2.58705 6.5261,3.67455 11.51754,3.12614 z m 0.25149,-3.94025 c 0.22223,-0.12466 -1.50236,-0.68294 -2.10541,-0.68294 -0.32521,3.3e-4 -0.76424,0.50191 -0.76424,0.87373 0,0.1225 2.62065,-0.0542 2.86965,-0.19079 z m -3.99445,-0.61573 c 0.14635,-0.0867 0.79352,-1.20263 1.43982,-2.46629 0.64608,-1.26366 1.22344,-2.35907 1.28252,-2.4343 0.0542,-0.0759 0.62332,-0.99406 1.25444,-2.04298 3.70307,-6.15428 5.34516,-7.98869 6.95799,-7.77242 1.748111,0.23415 2.211541,2.10064 1.994731,8.03346 -0.14634,3.98946 0.0434,4.30719 1.81847,3.12961 0.96696,-0.64067 0.95178,-0.57129 1.02875,-4.81463 0.13225,-7.36299 -0.89433,-9.55209 -4.484111,-9.56119 -2.21457,-0.006 -6.09184,3.00277 -7.84288,6.08544 -0.35123,0.61898 -0.85856,1.45228 -1.12707,1.85251 -1.42757,2.12818 -4.77073,8.55629 -4.77073,9.17321 0,0.91601 1.50529,1.41868 2.44807,0.81736 z m 7.70305,-0.21897 c 1.56046,-0.47915 1.54583,-0.4618 0.79893,-0.94637 -1.62844,-1.05693 -4.35478,-1.17303 -4.87133,-0.20813 -0.19946,0.37399 -0.0759,0.47589 1.23884,1.06127 1.34756,0.59839 1.20306,0.59297 2.83366,0.0867 z m 3.27953,-1.22746 c 0.54743,-0.22873 0.55069,-0.24282 0.72522,-2.74618 0.803261,-11.52492 -0.97347,-12.0252 -6.86292,-1.93229 -1.00707,1.72545 -1.03959,1.51634 0.31003,1.96969 1.61619,0.5431 3.90892,1.74096 4.90255,2.56125 0.47698,0.3935 0.37508,0.37724 0.92577,0.14743 z m -14.33951,-1.02007 c 0.34581,-0.37399 0.75991,-1.00273 0.91926,-1.3957 0.15936,-0.3935 0.7881,-1.59082 1.39635,-2.66087 1.99592,-3.51098 2.21143,-5.42343 0.52684,-4.67837 -0.86072,0.38049 -1.50052,1.71169 -2.67952,5.5779 -1.23699,4.05592 -1.2513,4.33473 -0.1626,3.15704 z m 27.731781,-12.47389 c 0.0759,-0.79568 -0.0325,-0.91384 -0.38483,-0.4206 -0.26993,0.37182 -0.46505,1.17932 -0.54744,2.26151 -0.0759,1.09097 0.81086,-0.67427 0.93118,-1.84036 z m -21.527411,1.12935 c 0.60922,-0.2309 0.93877,-0.50191 1.98172,-1.62497 1.85695,-1.99939 3.40994,-3.05166 5.07513,-3.43877 1.86779,-0.4347 4.025231,-5.30527 3.658181,-8.25915 -0.51925,-4.17852 -2.429101,-5.8758 -7.673991,-6.81967 -6.05748,-1.09021 -6.79982,0.33931 -1.13986,2.19485 7.10899,2.33067 8.371461,6.71689 3.47249,12.06411 -7.22488,7.88603 -14.18709,0.89325 -11.18345,-11.23179 2.10455,-8.495363 10.46148,-12.611334 11.56329,-5.69508 0.17236,1.08587 1.03959,1.35916 1.99647,0.62982 1.730771,-1.32014 0.0542,-5.756983 -2.69383,-7.107365 -4.16746,-2.051644 -10.86799,2.625315 -12.93091,9.025785 -0.129,0.40001 -0.27751,0.78701 -0.32954,0.86072 -0.0867,0.13008 -0.56912,1.87928 -1.00707,3.70512 -0.7946,3.30707 -0.18971,9.84998 1.16469,12.60505 1.33748,2.72028 5.16011,4.18925 8.04711,3.09232 z m -1.33824,-6.30637 c 0.4889,-1.08946 1.73792,-3.72128 2.77599,-5.84848 1.03742,-2.12731 1.8537,-3.92171 1.81305,-3.98762 -0.39242,-0.63524 -7.87909,-0.67535 -8.07237,-0.0434 -1.41965,4.63631 -0.5095,10.5095 1.80708,11.65598 0.75558,0.37399 0.67102,0.46396 1.67625,-1.77587 z m 3.51585,0.33713 c 0.34797,-0.21463 0.57562,-0.60489 1.25639,-2.1504 0.45747,-1.0385 1.10301,-2.48309 1.43483,-3.21091 0.96588,-2.11798 0.52901,-3.38641 -0.9095,-2.64233 -0.67427,0.34797 -3.89613,6.93489 -3.69331,7.54911 0.24933,0.75557 1.09802,0.9572 1.9118,0.45421 z m 3.19486,-1.81023 c 1.11873,-1.67537 1.71603,-3.40722 1.61261,-4.67587 -0.0542,-0.56912 -0.0542,-0.57996 -0.19729,-0.25366 -0.0759,0.18753 -0.39784,0.87264 -0.70246,1.52176 -1.02224,2.18238 -2.38205,5.21172 -2.38205,5.30657 0,0.23524 1.01682,-0.92143 1.66984,-1.89847 z m -23.40246,-3.22001 c 1.92839,-1.17575 6.25054,-4.711 6.25054,-5.11264 0,-1.68285 -3.53645,-0.39567 -5.98734,2.17891 -1.78421,1.8743 -1.97262,3.97603 -0.26342,2.93373 z m 3.56409,-8.34956 c 0.7469,-0.36099 0.99622,-0.80978 2.09587,-3.75857 1.24859,-3.349557 3.50002,-8.180666 5.09952,-10.942353 1.74778,-3.017627 3.35324,-5.706033 4.48942,-7.51713 3.0792,-4.908509 4.38795,-7.279944 4.57842,-8.29525 0.26775,-1.431685 -1.03634,-1.485778 -2.07799,-0.08672 -0.92902,1.24794 -2.84689,4.092014 -3.28723,4.874795 -0.24499,0.436866 -0.93443,1.62757 -1.53119,2.646563 -0.59731,1.018992 -1.40112,2.418156 -1.7879,3.109662 -0.387,0.691614 -0.86615,1.497052 -1.06453,1.790283 -0.19837,0.293773 -0.81844,1.359596 -1.37802,2.369483 -0.56045,1.01032 -1.15504,2.054029 -1.32317,2.320268 -1.22865,1.946493 -5.11827,10.226459 -5.35557,11.400789 -0.35123,1.74161 0.33497,2.67182 1.54193,2.08775 z m 19.0738,-2.73296 c -0.14959,-3.132213 -2.36287,-3.979169 -4.97322,-1.90346 -0.61465,0.4889 -2.15224,2.19897 -2.15084,2.39225 3.3e-4,0.0434 1.08707,0.0759 2.41502,0.0867 1.60664,0.01 2.72428,0.0867 3.34067,0.21572 1.52122,0.32955 1.42485,0.38592 1.36837,-0.7946 z M 71.338189,80.441555 c 0.23849,-0.238488 0.1973,-0.321959 -0.24282,-0.50516 -0.47698,-0.197295 -0.78809,-0.60164 -0.78809,-1.020077 0,-0.398925 -0.32196,-0.389169 -0.7339,0.02168 -0.3599,0.359899 -0.37941,0.442286 -0.20379,0.903 0.26667,0.703539 1.49184,1.075363 1.96947,0.598388 z m 2.90771,-3.462299 c 2.62239,-2.686021 8.82632,-4.425897 18.6235,-5.223096 2.28569,-0.186454 3.76951,-1.079698 3.76951,-2.27192 0,-1.225284 -0.97563,-1.372388 -4.10209,-0.617899 -0.76425,0.184285 -1.65738,0.372908 -1.98487,0.418437 -0.32738,0.04336 -1.48871,0.227647 -2.58033,0.403261 -1.09173,0.176698 -2.75908,0.44337 -3.70523,0.591883 -5.64999,0.891076 -9.36324,2.609055 -12.68689,5.869289 -1.33965,1.314175 -1.33965,1.314175 -0.64392,1.412606 0.80869,0.113823 1.30388,0.400008 1.52101,0.8759 0.15393,0.338218 0.15393,0.338218 0.59297,-0.172362 0.24065,-0.280765 0.77942,-0.859639 1.19634,-1.286316 z m 54.080111,95.317554 c -1.18529,-0.45638 -2.509,-2.24558 -2.2961,-3.10403 0.0542,-0.21789 0.16477,-0.73064 0.24608,-1.13975 0.60922,-3.06338 4.15955,-3.35021 5.37779,-0.4347 0.59079,1.41304 0.37507,1.61955 -2.11474,2.02985 -2.10931,0.34798 -2.1465,0.37291 -1.4848,0.99623 0.91601,0.86398 2.08059,0.89433 3.1089,0.0759 0.74582,-0.59079 1.20415,-0.48781 1.20415,0.26993 0,1.13086 -2.44157,1.91766 -4.04107,1.30214 z m 0.9637,-3.78188 c 1.43559,-0.2645 1.48415,-0.35447 0.64609,-1.19211 -0.96696,-0.96696 -1.97587,-0.63958 -2.39702,0.77942 -0.25366,0.85314 -0.26451,0.80436 0.1626,0.71438 0.20055,-0.0434 0.91493,-0.17778 1.58779,-0.30136 z m 4.98006,1.34724 c -0.14093,-0.3664 0.01,-0.66885 0.35881,-0.70896 0.45638,-0.0542 0.71763,0.26017 0.52142,0.62658 -0.17019,0.31653 -0.76858,0.3729 -0.88023,0.0867 z m -20.61813,-14.44075 c -0.28835,-0.28727 -0.35556,-0.0217 1.16697,-4.66243 4.95957,-15.12955 7.63258,-23.62394 8.27346,-26.29251 0.15718,-0.65476 0.3805,-1.57803 0.4954,-2.0511 0.49757,-2.0369 0.85097,-3.84323 1.36036,-6.94704 0.69053,-4.21266 0.64608,-4.01461 0.94419,-4.17407 0.91493,-0.48999 0.93769,0.009 0.20055,4.37256 -0.66451,3.93266 -0.67752,3.53688 0.0867,2.98879 2.98923,-2.12525 6.36589,-1.00707 6.35927,2.10574 -0.006,2.68114 -3.07703,4.7794 -5.06753,3.46219 -1.17109,-0.77509 -0.58105,-1.73576 0.61248,-0.9984 1.67418,1.03417 4.09006,-1.64654 3.11486,-3.45677 -1.6447,-3.05286 -5.58971,-0.4748 -6.84589,4.47381 -0.33822,1.33261 -1.01791,3.7293 -1.50985,5.3262 -0.49215,1.59678 -0.88023,2.90337 -0.86397,2.90337 0.0217,0 0.33388,-0.2038 0.70354,-0.45313 3.38999,-2.28146 6.93663,-0.903 6.95299,2.70239 0.0217,3.37742 -3.79119,5.25508 -6.05802,2.98825 -1.08078,-1.08078 -0.19295,-1.76622 0.93769,-0.72414 1.94541,1.79322 4.93464,-1.05368 3.72659,-3.54923 -1.40946,-2.91161 -6.27862,-0.93553 -7.5671,3.0715 -1.39982,4.35283 -4.98309,15.1973 -5.56999,16.85652 -0.80002,2.26173 -0.98972,2.52895 -1.46193,2.05674 z M 59.857609,125.00319 c -0.13875,-0.16803 -0.13116,-0.26342 0.0542,-0.53552 0.35773,-0.54527 0.94202,-0.30027 0.84988,0.35557 -0.0542,0.37182 -0.64066,0.48998 -0.89758,0.17995 z m 0.86398,-3.98665 c -0.29919,-0.29919 0.42061,-2.89426 1.61879,-5.83633 0.2786,-0.68511 0.2786,-0.68511 -0.54202,-0.065 -3.66772,2.77556 -8.4455,0.83796 -7.16926,-2.90728 0.5366,-1.57683 2.54661,-2.62141 3.77634,-1.96329 0.7133,0.38158 0.19079,1.05368 -0.81953,1.05368 -2.12622,0 -2.76103,2.87063 -0.82386,3.72735 2.3324,1.032 5.54548,-0.9442 7.24015,-4.45289 0.4488,-0.93011 2.06932,-4.87447 2.06932,-5.03827 0,-0.0434 -0.36207,0.24824 -0.80652,0.65909 -3.45189,3.19574 -8.43542,1.27277 -7.19908,-2.77784 0.59405,-1.944 3.03931,-3.26164 4.16432,-2.24352 0.6114,0.55395 0.25041,0.92252 -0.90734,0.92685 -2.38335,0.007 -3.14272,3.12473 -1.04826,4.3021 2.72949,1.53413 6.01108,-1.72621 9.6271,-9.56476 3.02977,-6.567516 7.52146,-14.649645 8.14175,-14.649645 0.64283,0 0.774,0.577791 0.28076,1.232873 -1.35352,1.796571 -5.95785,10.688474 -8.44051,16.300413 -2.47539,5.595569 -3.7862,8.838899 -6.86681,16.990839 -0.28619,0.75665 -0.70354,1.97782 -0.92577,2.71268 -0.48998,1.61467 -0.88674,2.07528 -1.37033,1.59148 z m 65.357751,-13.69266 c -0.11057,-0.34581 0.14526,-0.65584 0.53877,-0.65584 0.38158,0 0.50299,0.18429 0.39784,0.60272 -0.1084,0.4282 -0.80652,0.46722 -0.93877,0.0542 z" id="path7"/>
  </g>
</svg>